<svg width="45" height="45" viewBox="0 0 45 45" fill="none" xmlns="http://www.w3.org/2000/svg">
<g filter="url(#filter0_d_3610_92104)">
<circle cx="22.0804" cy="21.0804" r="18.0804" fill="white"/>
</g>
<path d="M26.8432 19C27.4523 19 28.0471 18.8146 28.5483 18.4684C29.0495 18.1222 29.4334 17.6316 29.6491 17.0619C29.8647 16.4922 29.9018 15.8703 29.7554 15.279C29.609 14.6877 29.286 14.155 28.8295 13.7517C28.373 13.3484 27.8045 13.0936 27.1997 13.0212C26.5948 12.9489 25.9823 13.0624 25.4435 13.3466C24.9047 13.6308 24.4653 14.0723 24.1835 14.6124C23.9017 15.1524 23.7911 15.7655 23.8662 16.37L18.9262 18.84C18.5024 18.4314 17.9678 18.1564 17.3889 18.0494C16.81 17.9425 16.2124 18.0082 15.6706 18.2384C15.1288 18.4686 14.6666 18.8532 14.3418 19.3441C14.017 19.8351 13.8438 20.4108 13.8438 20.9995C13.8438 21.5882 14.017 22.1639 14.3418 22.6549C14.6666 23.1458 15.1288 23.5304 15.6706 23.7606C16.2124 23.9908 16.81 24.0565 17.3889 23.9496C17.9678 23.8426 18.5024 23.5677 18.9262 23.159L23.8662 25.629C23.7787 26.3312 23.9423 27.0418 24.328 27.6351C24.7137 28.2284 25.2967 28.6663 25.9741 28.8713C26.6514 29.0763 27.3794 29.0353 28.0294 28.7555C28.6794 28.4757 29.2095 27.9751 29.5262 27.3422C29.8428 26.7093 29.9255 25.9849 29.7596 25.2969C29.5938 24.6089 29.1901 24.0017 28.6199 23.5826C28.0496 23.1635 27.3496 22.9595 26.6435 23.0066C25.9374 23.0537 25.2707 23.3489 24.7612 23.84L19.8212 21.37C19.8515 21.1243 19.8515 20.8757 19.8212 20.63L24.7612 18.16C25.2992 18.68 26.0332 19 26.8432 19Z" fill="#E56910"/>
<defs>
<filter id="filter0_d_3610_92104" x="0" y="0" width="44.1602" height="44.1602" filterUnits="userSpaceOnUse" color-interpolation-filters="sRGB">
<feFlood flood-opacity="0" result="BackgroundImageFix"/>
<feColorMatrix in="SourceAlpha" type="matrix" values="0 0 0 0 0 0 0 0 0 0 0 0 0 0 0 0 0 0 127 0" result="hardAlpha"/>
<feOffset dy="1"/>
<feGaussianBlur stdDeviation="2"/>
<feComposite in2="hardAlpha" operator="out"/>
<feColorMatrix type="matrix" values="0 0 0 0 0 0 0 0 0 0 0 0 0 0 0 0 0 0 0.14 0"/>
<feBlend mode="normal" in2="BackgroundImageFix" result="effect1_dropShadow_3610_92104"/>
<feBlend mode="normal" in="SourceGraphic" in2="effect1_dropShadow_3610_92104" result="shape"/>
</filter>
</defs>
</svg>
