<svg width="44" height="44" viewBox="0 0 44 44" fill="none" xmlns="http://www.w3.org/2000/svg">
<g filter="url(#filter0_d_3610_92105)">
<circle cx="22" cy="21" r="18" fill="white"/>
</g>
<g clip-path="url(#clip0_3610_92105)">
<path d="M22.1822 10.9219H22.1772C16.6634 10.9219 12.1797 15.4069 12.1797 20.9219C12.1797 23.1094 12.8847 25.1369 14.0834 26.7831L12.8372 30.4981L16.6809 29.2694C18.2622 30.3169 20.1484 30.9219 22.1822 30.9219C27.6959 30.9219 32.1797 26.4356 32.1797 20.9219C32.1797 15.4081 27.6959 10.9219 22.1822 10.9219Z" fill="#4CAF50"/>
<path d="M28.0023 25.0436C27.7611 25.7248 26.8036 26.2898 26.0398 26.4548C25.5173 26.5661 24.8348 26.6548 22.5373 25.7023C19.5986 24.4848 17.7061 21.4986 17.5586 21.3048C17.4173 21.1111 16.3711 19.7236 16.3711 18.2886C16.3711 16.8536 17.0998 16.1548 17.3936 15.8548C17.6348 15.6086 18.0336 15.4961 18.4161 15.4961C18.5398 15.4961 18.6511 15.5023 18.7511 15.5073C19.0448 15.5198 19.1923 15.5373 19.3861 16.0011C19.6273 16.5823 20.2148 18.0173 20.2848 18.1648C20.3561 18.3123 20.4273 18.5123 20.3273 18.7061C20.2336 18.9061 20.1511 18.9948 20.0036 19.1648C19.8561 19.3348 19.7161 19.4648 19.5686 19.6473C19.4336 19.8061 19.2811 19.9761 19.4511 20.2698C19.6211 20.5573 20.2086 21.5161 21.0736 22.2861C22.1898 23.2798 23.0948 23.5973 23.4186 23.7323C23.6598 23.8323 23.9473 23.8086 24.1236 23.6211C24.3473 23.3798 24.6236 22.9798 24.9048 22.5861C25.1048 22.3036 25.3573 22.2686 25.6223 22.3686C25.8923 22.4623 27.3211 23.1686 27.6148 23.3148C27.9086 23.4623 28.1023 23.5323 28.1736 23.6561C28.2436 23.7798 28.2436 24.3611 28.0023 25.0436Z" fill="#FAFAFA"/>
</g>
<defs>
<filter id="filter0_d_3610_92105" x="0" y="0" width="44" height="44" filterUnits="userSpaceOnUse" color-interpolation-filters="sRGB">
<feFlood flood-opacity="0" result="BackgroundImageFix"/>
<feColorMatrix in="SourceAlpha" type="matrix" values="0 0 0 0 0 0 0 0 0 0 0 0 0 0 0 0 0 0 127 0" result="hardAlpha"/>
<feOffset dy="1"/>
<feGaussianBlur stdDeviation="2"/>
<feComposite in2="hardAlpha" operator="out"/>
<feColorMatrix type="matrix" values="0 0 0 0 0 0 0 0 0 0 0 0 0 0 0 0 0 0 0.14 0"/>
<feBlend mode="normal" in2="BackgroundImageFix" result="effect1_dropShadow_3610_92105"/>
<feBlend mode="normal" in="SourceGraphic" in2="effect1_dropShadow_3610_92105" result="shape"/>
</filter>
<clipPath id="clip0_3610_92105">
<rect width="20" height="20" fill="white" transform="translate(12.1797 10.9219)"/>
</clipPath>
</defs>
</svg>
